Coordinates
version=1
nRows=37
nColumns=19
inDegrees=yes

Units are S.I. units (second, meters, Newtons, ...)
If the header above contains a line with 'inDegrees', this indicates whether rotational values are in degrees (yes) or radians (no).

endheader
time	pelvis_tilt	pelvis_list	pelvis_rotation	pelvis_tx	pelvis_ty	pelvis_tz	hip_flexion_r	hip_adduction_r	hip_rotation_r	knee_angle_r	knee_angle_r_beta	ankle_angle_r	hip_flexion_l	hip_adduction_l	hip_rotation_l	knee_angle_l	knee_angle_l_beta	ankle_angle_l
     13.76666667	     -0.84739487	      1.96887555	      2.47123725	      2.25366223	      0.98976375	      1.00588893	    -10.67387855	     -5.30917893	    -15.16766257	     44.38558192	      0.77467454	    -14.94034084	     18.91955243	      5.61232502	     -1.26516265	     11.10770307	      0.19386599	      6.89781319
     13.77333333	     -0.83914636	      2.26252123	      2.52308087	      2.25321912	      0.98643713	      1.00509122	     -9.50682719	     -5.86512658	    -14.36841066	     47.60874021	      0.83092927	    -14.05922577	     19.32861523	      5.95118489	     -1.82006586	     12.89259374	      0.22501821	      6.66005613
     13.78000000	     -0.48614075	      2.64150741	      2.67609755	      2.25278006	      0.98312364	      1.00431458	     -8.73195641	     -6.44373304	    -13.71234461	     50.75151218	      0.88578099	    -13.12032740	     19.43797884	      6.35642410	     -2.30082690	     15.06716687	      0.26297167	      6.53545303
     13.78666667	      0.29220756	      3.08408796	      2.84238807	      2.25237283	      0.97999338	      1.00360067	     -8.43395600	     -7.09520956	    -13.24278782	     53.79241981	      0.93885484	    -12.17555783	     19.05590122	      6.78038150	     -2.76329126	     17.39088619	      0.30352822	      6.51365332
     13.79333333	      0.29009886	      3.24584108	      2.97630127	      2.25166876	      0.97560530	      1.00294745	     -7.05971221	     -7.44597099	    -12.52618322	     57.02827072	      0.99533109	    -11.17239908	     19.81283871	      6.86908332	     -3.27804044	     20.36857141	      0.35549864	      6.75081785
     13.80000000	      1.18475595	      3.65329801	      3.20891905	      2.25115161	      0.97211648	      1.00226222	     -6.82822923	     -8.07211616	    -12.24733570	     59.93667517	      1.04609232	    -10.28017811	     19.35054163	      7.22108019	     -3.56469315	     23.04912862	      0.40228318	      7.16603518
     13.80666667	      1.06628625	      3.67716391	      3.40635698	      2.25031650	      0.96723895	      1.00155599	     -5.22419673	     -8.32583865	    -11.70834981	     63.03648304	      1.10019418	     -9.38168748	     20.22326925	      7.17522983	     -3.81462459	     26.19638751	      0.45721321	      7.91701116
     13.81333333	      1.41212266	      3.84979954	      3.64836979	      2.24955702	      0.96292245	      1.00082147	     -4.20394011	     -8.77386142	    -11.41794120	     65.88512833	      1.14991242	     -8.53326188	     20.38086014	      7.31480073	     -3.88885689	     29.03621564	      0.50677757	      8.90524964
     13.82000000	      1.70788114	      3.99835996	      3.91763266	      2.24870430	      0.95862711	      1.00002377	     -3.09259255	     -9.23948525	    -11.20315072	     68.60413368	      1.19736801	     -7.68699216	     20.48866335	      7.47653044	     -3.81373571	     31.71893481	      0.55359985	     10.11447507
     13.82666667	      1.93206165	      4.14920421	      4.20918679	      2.24779596	      0.95443097	      0.99920282	     -1.87217079	     -9.74456054	    -11.03830875	     71.17165007	      1.24217963	     -6.85472497	     20.53514164	      7.68742164	     -3.63445162	     34.17623259	      0.59648778	     11.56566340
     13.83333333	      2.61055092	      4.43572438	      4.47801378	      2.24690387	      0.95108406	      0.99840564	     -1.20177243	    -10.43355701	    -11.00197539	     73.45340634	      1.28200379	     -6.03934923	     19.82540515	      8.04312134	     -3.39403633	     36.20332734	      0.63186726	     13.21314724
     13.84000000	      2.13605521	      4.43910924	      4.80895991	      2.24574334	      0.94663780	      0.99750057	      0.95894402	    -10.85336768	    -10.75662284	     75.81151350	      1.32316052	     -5.13935876	     20.40345181	      8.24312150	     -2.98495563	     38.25218859	      0.66762664	     14.83164793
     13.84666667	      2.11407588	      4.57359024	      5.07618454	      2.24459020	      0.94317929	      0.99670566	      2.57915844	    -11.42535732	    -10.56278635	     77.84763767	      1.35869759	     -4.22464173	     20.20767960	      8.55528526	     -2.58827769	     39.83293405	      0.69521585	     16.50252188
     13.85333333	      2.61768201	      4.71070092	      5.27208662	      2.24334668	      0.94085982	      0.99603798	      3.61051432	    -11.94833772	    -10.37802353	     79.52486196	      1.38797068	     -3.45234848	     19.19937893	      8.83899024	     -2.11049582	     41.00316501	      0.71564023	     18.14765257
     13.86000000	      1.98446129	      4.88570536	      5.47773873	      2.24229765	      0.93757348	      0.99532511	      6.01114340	    -12.62339429	    -10.02700087	     81.23660367	      1.41784621	     -2.40380269	     19.30020971	      9.22642296	     -1.80636997	     41.96057622	      0.73235021	     19.65926167
     13.86666667	      2.15052928	      4.93213866	      5.61861505	      2.24122515	      0.93586025	      0.99481121	      7.45528569	    -13.02348681	     -9.75315478	     82.45386479	      1.43909142	     -1.43462983	     18.30333562	      9.38999522	     -1.40670764	     42.53771450	      0.74242317	     21.16014825
     13.87333333	      1.72069736	      5.03274420	      5.57243193	      2.24008298	      0.93391754	      0.99448188	      9.73987371	    -13.47285272	     -9.12987300	     83.61106964	      1.45928846	     -0.58295348	     17.83274850	      9.60744580	     -1.19372168	     42.85359236	      0.74793628	     22.26519899
     13.88000000	      1.80653076	      4.95813814	      5.63040131	      2.23909874	      0.93319955	      0.99412308	     11.28011303	    -13.65066758	     -8.79604983	     84.27621548	      1.47089744	      0.29039102	     16.61382084	      9.60733718	     -0.78120837	     42.87837716	      0.74836886	     23.35290397
     13.88666667	      1.53244100	      5.06303496	      5.33418507	      2.23815539	      0.93254016	      0.99420624	     13.39821656	    -13.93645151	     -7.99077156	     84.84923945	      1.48089860	      1.09304738	     15.64069777	      9.68859502	     -0.84453361	     42.58235140	      0.74320224	     24.07049762
     13.89333333	      1.41960061	      4.99024859	      5.11527699	      2.23731130	      0.93264274	      0.99425670	     15.21071964	    -13.95590338	     -7.38465539	     85.02827159	      1.48402330	      1.82233215	     14.37937404	      9.57892074	     -0.76619171	     42.08842313	      0.73458156	     24.65529225
     13.90000000	      1.32708938	      4.89310784	      4.82271814	      2.23658710	      0.93323516	      0.99442093	     16.95217336	    -13.85772238	     -6.75634181	     84.92107994	      1.48215245	      2.49468567	     12.99365182	      9.40674424	     -0.78166871	     41.39179675	      0.72242314	     25.04680124
     13.90666667	      1.21481365	      4.73931613	      4.47239213	      2.23593991	      0.93433712	      0.99470998	     18.64525328	    -13.61431413	     -6.14184302	     84.51901444	      1.47513508	      3.05425972	     11.54198190	      9.15156573	     -0.86821300	     40.50237828	      0.70689986	     25.20552084
     13.91333333	      1.09319798	      4.53234448	      4.10231120	      2.23534619	      0.93590711	      0.99506902	     20.25078078	    -13.24092507	     -5.58018271	     83.81570272	      1.46285998	      3.52994128	     10.03499327	      8.83414972	     -0.98658143	     39.46312516	      0.68876147	     25.15075588
     13.92000000	      0.95663843	      4.28278979	      3.71415014	      2.23483730	      0.93785392	      0.99550004	     21.76182203	    -12.75307622	     -5.07738767	     82.83769903	      1.44579059	      3.90661397	      8.50059026	      8.45724828	     -1.17822122	     38.31005293	      0.66863656	     24.88126262
     13.92666667	      0.45913691	      3.91620735	      3.70859741	      2.23439164	      0.93970879	      0.99549352	     23.41997202	    -12.34396013	     -5.12130143	     81.58250181	      1.42388327	      4.26448564	      7.42184116	      8.02097299	     -1.07424290	     37.28359178	      0.65072143	     24.49240573
     13.93333333	      0.51191381	      3.63786948	      2.96084210	      2.23408301	      0.94270693	      0.99651886	     24.55813054	    -11.48474097	     -4.34164511	     80.03432809	      1.39686254	      4.42234162	      5.54683962	      7.57371543	     -1.59960030	     35.78496634	      0.62456549	     23.67689538
     13.94000000	      0.42700271	      3.27492235	      2.67572190	      2.23391950	      0.94582019	      0.99696528	     25.51761973	    -10.81921558	     -4.24008987	     78.18047295	      1.36450666	      4.62965281	      3.85870951	      7.09738729	     -1.75490550	     34.36961039	      0.59986286	     22.72637360
     13.94666667	      0.22637591	      2.87189212	      2.38533779	      2.23384704	      0.94900040	      0.99742143	     26.47367767	    -10.11171168	     -4.22844255	     76.09234530	      1.32806196	      4.73748118	      2.33731768	      6.58934096	     -1.95335988	     32.99378106	      0.57585011	     21.55705698
     13.95333333	     -0.61205781	      2.48814431	      2.35693947	      2.23377036	      0.95157968	      0.99769601	     27.97547920	     -9.55559929	     -4.48688823	     73.84712253	      1.28887543	      4.85389386	      1.65590119	      6.12216295	     -1.99719076	     31.85247589	      0.55593058	     20.21728299
     13.96000000	     -0.41722726	      2.00471201	      1.89671845	      2.23397904	      0.95570019	      0.99841431	     28.17347644	     -8.61879850	     -4.49754478	     71.16476308	      1.24205943	      4.80391616	     -0.33802926	      5.50168569	     -2.45590436	     30.29967177	      0.52882903	     18.52311665
     13.96666667	     -1.31013160	      1.67656364	      1.85151221	      2.23419480	      0.95841959	      0.99868741	     29.45188584	     -8.15461428	     -4.93180330	     68.47630196	      1.19513693	      4.82758301	     -0.88640367	      5.08566201	     -2.60487230	     29.21900108	      0.50996777	     16.72594350
     13.97333333	     -0.93309412	      1.09903015	      1.55789525	      2.23474079	      0.96295638	      0.99918997	     29.05793761	     -7.28728706	     -5.44592072	     65.28761077	      1.13948377	      4.73119047	     -3.01112365	      4.37628897	     -2.99579176	     27.71068088	      0.48364262	     14.67285366
     13.98000000	     -1.83497443	      0.81457901	      1.44157140	      2.23522945	      0.96571399	      0.99955208	     30.08594618	     -6.85811466	     -6.02256394	     62.20612772	      1.08570174	      4.65880676	     -3.44827401	      4.00551812	     -3.27479200	     26.72940458	      0.46651612	     12.49228727
     13.98666667	     -1.44661544	      0.17351518	      1.25848349	      2.23607808	      0.97021066	      0.99999963	     29.35751796	     -6.04052449	     -6.97599266	     58.60610389	      1.02286947	      4.54611610	     -5.42993617	      3.21124423	     -3.73971162	     25.42953988	      0.44382920	     10.23408193
     13.99333333	     -2.35678359	     -0.01221151	      1.08397591	      2.23678655	      0.97281222	      1.00062008	     30.17255408	     -5.67728983	     -7.71048294	     55.24372857	      0.96418495	      4.54300848	     -5.70773974	      2.92300592	     -4.18168760	     24.63433456	      0.42995025	      7.79192092
     14.00000000	     -1.90160489	     -0.70962912	      0.95727350	      2.23793212	      0.97723178	      1.00111023	     29.08901748	     -4.79600438	     -8.96969967	     51.29001142	      0.89517957	      4.40876135	     -7.60493470	      2.07119320	     -4.66903868	     23.55421816	      0.41109866	      5.43842052
     14.00666667	     -2.11746132	     -1.14475582	      0.80270677	      2.23898074	      0.98050162	      1.00189011	     28.78333457	     -4.08517391	    -10.03978079	     47.44591345	      0.82808741	      4.41945842	     -8.53401791	      1.48082257	     -5.22442414	     22.88273349	      0.39937904	      3.01773920
